# xmcd
#
# Track frame offsets: 
#        150
#        10041
#        22326
#        33746
#        45165
#        55264
#        70933
#        82700
#        95929
#        106185
#        117377
#        128308
#        142325
#        155212
#        167394
#        176992
#        186848
#        197855
#
# Disc length: 2778 seconds
#
# Revision: 2
# Processed by: cddbd v1.5.2PL0 Copyright (c) Steve Scherf et al.
# Submitted via: ExactAudioCopyFreeDBPlugin 1.0
#
DISCID=fa0ad812
DTITLE=Various Artist - Northern Soul - Solid Gold Collection (Disc1)
DYEAR=2005
DGENRE=Soul
TTITLE0=Betty Everett - Getting Mighty Crowded
TTITLE1=Otis Clay - I'm Satisfied
TTITLE2=The Sharpees - Do The 45
TTITLE3=Mary Silvers - The Power of Love
TTITLE4=Ringleaders - Baby What Has Happened to Our Love
TTITLE5=Al Wilson - The Snake
TTITLE6=Liz Lands - Don't Shut Me Out
TTITLE7=Otis Clay - A Flame in Your Heart
TTITLE8=The Accents - Who You Gonna Love
TTITLE9=Lucky Laws - Who Is She?
TTITLE10=The Sharpees - Just to Please You
TTITLE11=Betty Everett - Your Love is Important to Me
TTITLE12=Otis Clay - I Don't KNow What to Do
TTITLE13=Denise Chandler - I'm Walking Away
TTITLE14=The Fascinations - Girls Are Out to Get You
TTITLE15=Inspirations - Your Wish Is My Command
TTITLE16=Betty Everett - Please Love Me
TTITLE17=Beverly Shaffer - Where Will You Be Boy?
EXTD=
EXTT0=
EXTT1=
EXTT2=
EXTT3=
EXTT4=
EXTT5=
EXTT6=
EXTT7=
EXTT8=
EXTT9=
EXTT10=
EXTT11=
EXTT12=
EXTT13=
EXTT14=
EXTT15=
EXTT16=
EXTT17=
PLAYORDER=
